<mxfile host="app.diagrams.net" modified="2023-03-23T16:26:55.581Z" agent="5.0 (Windows NT 10.0; Win64; x64) AppleWebKit/537.36 (KHTML, like Gecko) Chrome/111.0.0.0 Safari/537.36" etag="Jt7mjvrljyTdFFFBl0-j" version="21.0.10" type="github">
  <diagram name="Page-1" id="Jr0lLESXZBwgUTwiYbti">
    <mxGraphModel dx="1221" dy="604" grid="1" gridSize="10" guides="1" tooltips="1" connect="1" arrows="1" fold="1" page="1" pageScale="1" pageWidth="850" pageHeight="1100" math="0" shadow="0">
      <root>
        <mxCell id="0" />
        <mxCell id="1" parent="0" />
      </root>
    </mxGraphModel>
  </diagram>
</mxfile>
